<?xml version="1.0" encoding="UTF-8"?>
<svg id="_레이어_1" data-name="레이어 1" xmlns="http://www.w3.org/2000/svg" viewBox="0 0 50 50">
  <defs>
    <style>
      .cls-1 {
        fill: #a5dbf7;
      }

      .cls-1, .cls-2 {
        stroke-width: 0px;
      }

      .cls-2 {
        fill: #435aa0;
      }
    </style>
  </defs>
  <circle class="cls-1" cx="25" cy="25" r="25"/>
  <g>
    <path class="cls-2" d="M38.99,33.52c1.45-1.74,1.77-4.14.84-6.19-.93-2.05-2.97-3.4-5.24-3.47v-8.3h1.11c1.42,0,2.58-1.14,2.58-2.55v-.3c0-1.41-1.16-2.55-2.58-2.56h-19.54c-1.42,0-2.57,1.15-2.57,2.56v19.22h-3.28c-.72,0-1.3.58-1.3,1.29v4.23c0,1.49,1.22,2.7,2.73,2.7h20.29c1.42,0,2.58-1.15,2.58-2.56v-1.92c.27,0,.54-.04.81-.08l2.14,2.85h0c.14.18.35.29.58.29h.06c.25-.02.47-.17.58-.39l.52-1,1.12-.21c.24-.04.45-.2.54-.43s.06-.49-.09-.69l-1.86-2.49ZM13.59,36.33v1.12c-.05.98-.87,1.75-1.86,1.75s-1.81-.77-1.86-1.75v-4.23c0-.24.2-.43.44-.43h3.28v3.54ZM35.7,11.01c.45,0,.89.18,1.21.5.32.32.5.75.5,1.2v.3c0,.93-.77,1.69-1.71,1.69h-16.26c-.39,0-.7-.31-.7-.7v-1.29c0-.62-.23-1.23-.65-1.69h17.61ZM33.72,37.6c0,.45-.18.88-.5,1.2-.32.32-.75.5-1.21.5H13.7c.47-.5.74-1.16.74-1.84V12.71c-.02-.46.15-.92.47-1.25s.77-.53,1.24-.53.91.19,1.24.53c.32.34.49.79.47,1.25v1.29c0,.86.71,1.56,1.57,1.56h14.3v8.33c-2.18.24-4.04,1.64-4.87,3.65-.82,2.01-.47,4.31.92,5.98l-1.86,2.48c-.15.2-.18.46-.09.69.09.23.3.39.54.43l1.12.21.52,1c.11.22.33.37.58.39h.07c.23,0,.44-.11.58-.29l2.15-2.85c.11,0,.23.04.35.05v1.96ZM30.39,34.15c.6.54,1.3.95,2.07,1.21l-1.81,2.39-.44-.86c-.1-.2-.29-.34-.51-.37l-.95-.15,1.64-2.21ZM34.39,34.82c-2.06,0-3.92-1.23-4.71-3.12s-.35-4.07,1.11-5.51c1.46-1.45,3.65-1.88,5.56-1.1s3.15,2.63,3.14,4.67c0,2.79-2.28,5.05-5.09,5.05h0ZM39.06,36.51h0c-.22.04-.41.18-.51.38l-.44.86-1.82-2.38c.76-.26,1.47-.67,2.07-1.21l1.65,2.2-.96.15Z"/>
    <path class="cls-2" d="M17.48,22.82h13.17c.23,0,.45-.09.61-.25.16-.16.25-.38.25-.61v-2.81c0-.23-.09-.45-.25-.61s-.38-.25-.61-.25h-13.17c-.48,0-.87.39-.87.86v2.81c0,.23.09.45.25.61.16.16.38.25.61.25h0ZM17.48,19.15h13.17s0,2.8,0,2.8h-13.17v-2.8Z"/>
    <path class="cls-2" d="M17.05,25.44h11.07c.24,0,.44-.19.44-.43s-.2-.43-.44-.43h-11.07c-.24,0-.44.19-.44.43s.19.43.44.43Z"/>
    <path class="cls-2" d="M26.6,27.17h-9.56,0c-.24,0-.44.19-.44.43s.19.43.44.43h9.56,0c.24,0,.44-.19.44-.43s-.19-.43-.44-.43Z"/>
    <path class="cls-2" d="M17.05,30.62h8.98c.24,0,.43-.19.43-.43s-.19-.43-.43-.43h-8.98c-.24,0-.44.19-.44.43s.19.43.44.43Z"/>
    <path class="cls-2" d="M26.6,32.36h-9.56,0c-.24,0-.44.19-.44.43s.19.43.44.43h9.56,0c.24,0,.44-.19.44-.43s-.19-.43-.44-.43Z"/>
    <path class="cls-2" d="M26.04,34.95h-8.99c-.24,0-.44.19-.44.43s.19.43.44.43h8.99c.24,0,.44-.19.44-.43s-.2-.43-.44-.43Z"/>
    <path class="cls-2" d="M37.25,28.35l-1.46-.18-.66-1.34c-.14-.28-.43-.46-.74-.46-.31,0-.6.18-.74.46l-.63,1.29-1.49.21h0c-.31.05-.56.27-.65.57-.09.3,0,.62.22.83l1.03,1.01-.25,1.47h0c-.05.31.08.61.33.8.25.18.59.21.87.07l1.3-.69,1.33.69c.28.15.61.12.87-.06.25-.18.38-.49.33-.8l-.27-1.43,1.07-1.04c.23-.21.31-.54.22-.83-.09-.3-.35-.52-.65-.57h-.03ZM36.03,30.17h0c-.2.19-.29.46-.24.73l.24,1.38-1.26-.66c-.12-.06-.25-.09-.38-.09s-.27.03-.39.09l-1.26.65.24-1.38c.05-.27-.04-.54-.23-.73l-1.02-.98,1.4-.2h0c.27-.04.5-.2.62-.43l.62-1.29.64,1.29c.13.23.36.39.62.43l1.4.2-1.01.99Z"/>
  </g>
</svg>