<?xml version="1.0" encoding="UTF-8"?>
<svg id="_레이어_1" data-name="레이어 1" xmlns="http://www.w3.org/2000/svg" viewBox="0 0 50 50">
  <defs>
    <style>
      .cls-1 {
        fill: #a5dbf7;
      }

      .cls-1, .cls-2 {
        stroke-width: 0px;
      }

      .cls-2 {
        fill: #435aa0;
      }
    </style>
  </defs>
  <circle class="cls-1" cx="25" cy="25" r="25"/>
  <path class="cls-2" d="M34.62,30.39l5.28-5.69c.72-.77,1.11-1.82,1.1-2.9-.01-1.09-.42-2.12-1.15-2.88-.73-.76-1.71-1.18-2.73-1.17-1.02,0-1.99.45-2.71,1.22l-2.38,2.57-.92-2.71,4.66-4.58c.28-.27.39-.69.29-1.07-.1-.39-.39-.69-.76-.78l-13.77-3.37c-.3-.08-.62,0-.86.21l-11.3,9.58c-.29.25-.43.64-.37,1.03.06.39.32.71.67.84l4.98,1.82,1.62,6.18c.09.34.32.6.63.72,1.06.39,2.15.66,3.26.79-.51,1.28-2,2.67-4.51,4.25-.38-.42-.87-.71-1.4-.84-.26-.07-.54-.03-.77.12l-1.24.78c-.34.21-.53.61-.49,1.03-.51.26-1.04.45-1.6.56-.27.02-.47.27-.47.55,0,.29.22.52.49.53h.03c.66-.11,1.29-.31,1.89-.62-.72.45-1.48.81-2.27,1.07-.14.03-.25.12-.32.25-.07.13-.09.28-.06.42.04.14.12.26.24.33.12.07.26.09.4.05.91-.3,1.79-.71,2.61-1.23l.04.08c-.55.39-1.14.71-1.76.95-.26.1-.4.41-.3.69.1.28.39.43.65.32.68-.26,1.33-.61,1.93-1.03l.34.61,1.6-1c.77-.48,1.18-1.4,1.06-2.33-.02-.11-.06-.22-.1-.33,2.98-1.86,4.57-3.46,5.06-5.11.21,0,.42.02.65.02.74,0,1.48-.07,2.21-.19l-2.01,2.17c-1.09,1.18-1.4,2.93-.8,4.45.6,1.52,2,2.51,3.54,2.51h.04c1.02,0,1.99-.45,2.71-1.22l3.35-3.61v6.61l1.82-2.14,1.82,2.14v-5.21l3.32,3.54-.14-2.88,2.71.15-5.82-6.19ZM14.69,37.12l-.63.39c0-.25-.17-.46-.4-.5l-.12-.21c.09-.17.09-.37,0-.53-.09-.17-.26-.26-.44-.26l-.02-.04h0c.15-.22.12-.52-.07-.7l1-.63h0s0,0,0,0c.31.08.59.23.83.44-.07.15-.06.33.02.47.08.15.22.24.37.26,0,.02.02.04.02.06h0c.07.5-.16.99-.57,1.25h0ZM38.01,24.13h0c-.66.09-1.33-.07-1.89-.46l2.25-2.12c.23.66.41,1.73-.36,2.57h0ZM35.24,19.64s0,0,0,0c.51-.51,1.19-.8,1.89-.81h.03c1.02,0,1.96.58,2.46,1.52.5.95.48,2.11-.05,3.03h0s-.05.04-.08.06h0c.2-1.05,0-2.15-.53-3.06l-.32-.53-3.26,3.07c-.66-.96-.72-2.25-.15-3.28h0ZM33.84,21.13c-.01,1.09.39,2.15,1.12,2.92,0,0,0,0,0,0s0,0,0,0c0,0,.01.01.02.02h0c.72.75,1.68,1.17,2.68,1.17.11,0,.22-.02.32-.03l-5.04,5.43c-1.12-.2-1.97-.66-2.52-1.38h0c-.52-.74-.82-1.63-.88-2.55-.03-.25-.13-.48-.3-.65l4.58-4.94ZM15.12,21.57s-.08-.06-.12-.08l-4.98-1.82,11.3-9.58,13.77,3.37-4.66,4.58c-.05.05-.09.11-.13.17-.04.02-.08.04-.11.07-4.36,3.95-8.46,4.55-11.25,4.29,0-1.69,1.22-3.1,1.8-3.68l1.22,1.04.97-1.29c.63-.83.5-2.05-.28-2.72-.78-.67-1.93-.53-2.56.3l-.97,1.29.82.69c-.92.94-1.94,2.48-2.01,4.22h0c-.9-.14-1.77-.41-2.6-.8-.07-.03-.14-.05-.22-.05h0ZM20.56,17.33l.34-.45c.13-.18.33-.29.54-.31.21-.03.42.04.59.18.34.3.4.83.12,1.2l-.34.45-1.25-1.07ZM17.26,28.39l-1.41-5.39c.71.26,1.45.44,2.19.56.1.47.27.92.51,1.33.16.27.31.54.47.8.73,1.24,1.37,2.33,1.37,3.44-1.06-.12-2.11-.36-3.12-.74h0ZM21.4,29.21c.03-1.43-.73-2.73-1.53-4.09-.15-.26-.31-.52-.46-.79-.11-.2-.21-.42-.29-.64.31.02.62.04.95.04,2.76,0,6.37-.88,10.2-4.15l.95,2.81-4.78,5.16-1.06,1.14c-1.3.4-2.65.57-4,.52h0ZM26.83,37.25h0c-.52.57-1.24.9-1.99.9-.75,0-1.47-.31-2.01-.86-1.11-1.16-1.13-3.07-.04-4.25l3.57-3.84c.27.9.68,1.75,1.23,2.49.67.88,1.53,1.58,2.51,2.05l-3.27,3.52ZM30.86,32.91c-.97-.39-1.82-1.05-2.47-1.9-.58-.79-.99-1.71-1.21-2.69l1.37-1.48c.07,1.13.45,2.21,1.09,3.12.64.81,1.5,1.37,2.46,1.62l-1.25,1.34ZM33.52,35.78v2.4l-.05-.05h0c-.19-.23-.47-.36-.75-.36s-.56.13-.76.36l-.05.05v-4.89l1.51-1.63.09,2.83h0c0,.22.14.41.34.49-.22.2-.34.49-.34.8h0ZM37,35.67c-.2.22-.31.51-.3.82v.07s-1.45-1.54-1.45-1.54h0c-.21-.22-.49-.33-.78-.31.04-.08.06-.16.06-.25l-.09-2.71,3.39,3.61h-.07c-.29-.01-.57.1-.77.31h0Z"/>
</svg>