<?xml version="1.0" encoding="UTF-8"?>
<svg id="_레이어_1" data-name="레이어 1" xmlns="http://www.w3.org/2000/svg" viewBox="0 0 50 50">
  <defs>
    <style>
      .cls-1 {
        fill: #a5dbf7;
      }

      .cls-1, .cls-2 {
        stroke-width: 0px;
      }

      .cls-2 {
        fill: #465fab;
      }
    </style>
  </defs>
  <circle class="cls-1" cx="25" cy="25" r="25"/>
  <g>
    <path class="cls-2" d="M14.1,21.48h-3.03v8.35h-1.67v-8.35h-3v-1.36h7.7v1.36Z"/>
    <path class="cls-2" d="M22.94,25.23c0,.95-.16,1.79-.49,2.5s-.8,1.27-1.41,1.65-1.32.58-2.11.58-1.49-.19-2.1-.58-1.09-.93-1.43-1.64c-.34-.71-.51-1.53-.51-2.46v-.55c0-.95.17-1.78.5-2.51.34-.72.81-1.28,1.42-1.66s1.31-.58,2.1-.58,1.49.19,2.1.57,1.08.93,1.42,1.64.5,1.54.51,2.49v.54ZM21.25,24.73c0-1.08-.2-1.9-.61-2.47s-.98-.86-1.73-.86-1.3.29-1.71.86-.62,1.38-.63,2.42v.56c0,1.07.21,1.89.62,2.47s.99.87,1.73.87,1.32-.28,1.72-.85.6-1.4.6-2.49v-.51Z"/>
    <path class="cls-2" d="M30.29,25.5h-3.99v2.99h4.66v1.35h-6.35v-9.71h6.3v1.36h-4.62v2.68h3.99v1.33Z"/>
    <path class="cls-2" d="M34.12,29.84h-1.68v-9.71h1.68v9.71Z"/>
    <path class="cls-2" d="M43.61,26.67c-.1,1.04-.48,1.84-1.15,2.42s-1.55.87-2.66.87c-.77,0-1.46-.18-2.04-.55s-1.04-.89-1.36-1.56-.49-1.46-.5-2.35v-.91c0-.92.16-1.72.49-2.42s.79-1.24,1.4-1.61,1.31-.57,2.1-.57c1.07,0,1.93.29,2.59.87s1.03,1.4,1.14,2.46h-1.68c-.08-.7-.28-1.2-.61-1.51s-.81-.46-1.44-.46c-.73,0-1.3.27-1.69.8s-.59,1.32-.6,2.36v.86c0,1.05.19,1.85.56,2.4s.93.83,1.65.83c.66,0,1.16-.15,1.49-.45s.54-.79.63-1.49h1.68Z"/>
  </g>
</svg>