<?xml version="1.0" encoding="UTF-8"?>
<svg id="_레이어_1" data-name="레이어 1" xmlns="http://www.w3.org/2000/svg" viewBox="0 0 50 50">
  <defs>
    <style>
      .cls-1 {
        fill: #a5dbf7;
      }

      .cls-1, .cls-2 {
        stroke-width: 0px;
      }

      .cls-2 {
        fill: #465fab;
        fill-rule: evenodd;
      }
    </style>
  </defs>
  <circle class="cls-1" cx="25" cy="25" r="25"/>
  <path class="cls-2" d="M39.08,17.01c3.91,6.76,1.66,15.44-5.04,19.39-2.15,1.27-4.59,1.94-7.08,1.94v.33c0,.73-.59,1.32-1.31,1.32h-15.34c-.72,0-1.31-.59-1.31-1.32v-12.22c0-.73.59-1.32,1.31-1.32h2.64c-.52-7.81,5.32-14.57,13.06-15.1,2.81-.19,5.61.47,8.03,1.9l1.75-1.76c.19-.19.5-.19.69,0,.08.08.13.2.14.32l.46,3.46,3.47.47c.27.04.45.29.41.55-.01.1-.06.2-.13.27h0l-1.74,1.76ZM15.39,22.81h2.01c.74-5.33,5.62-9.05,10.91-8.3.35.05.69.12,1.03.2.51.13,1,.3,1.48.51.02-.05.06-.1.1-.14h0l2.42-2.45c-6.31-3.55-14.27-1.28-17.79,5.09-1.24,2.25-1.81,4.82-1.63,7.39h.99v-1.82c0-.27.22-.49.48-.49h0ZM18.37,22.81h2.2c.27,0,.48.22.48.49v1.82h.72c-.52-2.89,1.37-5.65,4.23-6.18,1.53-.28,3.11.13,4.31,1.14l.94-.95-.37-2.78c-4.28-2.19-9.51-.46-11.68,3.86-.41.82-.69,1.7-.83,2.61h0ZM20.09,23.79h-4.22v1.33h4.22v-1.33ZM17.04,30.64h1.9c.27,0,.48.22.48.49v.35l6.58-2.51v-2.54c0-.19-.15-.34-.34-.34h-15.34c-.19,0-.34.15-.34.34v2.54l6.58,2.51v-.35c0-.27.22-.49.49-.49,0,0,0,0,0,0ZM19.42,32.53v.49c-.01.8-.66,1.44-1.46,1.42-.77-.01-1.4-.64-1.41-1.42v-.49l-6.58-2.5v8.64c0,.19.15.34.34.34h15.34c.19,0,.34-.15.34-.34v-8.64l-6.58,2.5h0ZM18.45,31.62h-.92v1.39c0,.26.21.47.46.47s.46-.21.46-.47v-1.39ZM26.96,37.36c7.22,0,13.07-5.92,13.06-13.22,0-2.25-.57-4.46-1.66-6.42l-2.42,2.45s-.09.07-.14.1c2.13,4.93-.1,10.68-4.99,12.83-1.21.53-2.52.81-3.85.81v3.45h0ZM26.96,32.93c4.8,0,8.68-3.94,8.67-8.79,0-1.37-.32-2.72-.94-3.95l-2.76-.38-.94.95c1.86,2.26,1.55,5.61-.69,7.48-.94.79-2.13,1.22-3.35,1.23v3.45ZM26.96,28.49c2.37,0,4.29-1.95,4.28-4.34,0-.98-.33-1.93-.93-2.69l-3.02,3.04c-.19.19-.5.19-.69,0s-.19-.5,0-.69l3.02-3.04c-1.86-1.49-4.56-1.18-6.03.69-.81,1.03-1.12,2.37-.83,3.66h2.89c.72,0,1.31.59,1.31,1.32v2.05h0ZM36.17,14.44l-.39-2.89-4.02,4.06.44,3.26,3.23.44,4.02-4.06-2.85-.39c-.22-.03-.4-.2-.42-.42h0Z"/>
</svg>